<svg width="84" height="84" viewBox="0 0 84 84" fill="none" xmlns="http://www.w3.org/2000/svg">
<circle cx="41.871" cy="41.871" r="40.871" fill="white" stroke="#464646" stroke-width="2"/>
<path d="M65.7018 27.2059H17.1224V54.7031H65.7018V27.2059Z" fill="#F9EAB0"/>
<path d="M18.9566 34.4926C17.3682 34.3139 16.0611 28.6641 15.5433 27.2059H15.2903V54.7031H18.9566V34.4926Z" fill="#556080"/>
<path d="M68.1987 29.039C67.6799 30.4973 66.3738 34.3139 64.7853 34.4926V54.7031H68.4516V29.039H68.1987Z" fill="#556080"/>
<path d="M24.456 25.3727L27.2057 20.7898V15.2903H21.611C20.6513 15.2903 19.8732 16.0685 19.8732 17.0282V20.7898L15.2903 25.3727H24.456Z" fill="#ED7161"/>
<path d="M33.6218 25.3727L34.5384 20.7898V15.2904H27.2058V20.7898L24.4561 25.3727H33.6218Z" fill="#F3D55B"/>
<path d="M41.8709 25.3727V20.7898V15.2904H34.5383V20.7898L33.6218 25.3727H41.8709Z" fill="#ED7161"/>
<path d="M20.3314 34.5384H19.4149C17.1372 34.5384 15.2903 32.6915 15.2903 30.4138V25.3726H24.456V30.4138C24.456 32.6915 22.6091 34.5384 20.3314 34.5384Z" fill="#D36259"/>
<path d="M29.4972 34.5384H28.5806C26.303 34.5384 24.4561 32.6915 24.4561 30.4138V25.3726H33.6218V30.4138C33.6218 32.6915 31.7749 34.5384 29.4972 34.5384Z" fill="#F0C419"/>
<path d="M55.1612 34.5384H54.2446C51.967 34.5384 50.1201 32.6915 50.1201 30.4138V25.3726H59.2858V30.4138C59.2858 32.6915 57.4389 34.5384 55.1612 34.5384Z" fill="#D36259"/>
<path d="M64.327 34.5384H63.4104C61.1327 34.5384 59.2858 32.6915 59.2858 30.4138V25.3726H68.4516V30.4138C68.4516 32.6915 66.6047 34.5384 64.327 34.5384Z" fill="#F0C419"/>
<path d="M37.7463 34.5384C35.4687 34.5384 33.6218 32.6915 33.6218 30.4138V25.3726H41.8709V30.4138C41.8709 32.6915 40.024 34.5384 37.7463 34.5384Z" fill="#D36259"/>
<path d="M45.9955 34.5384C43.7178 34.5384 41.8709 32.6915 41.8709 30.4138V25.3726H50.1201V30.4138C50.1201 32.6915 48.2732 34.5384 45.9955 34.5384Z" fill="#F0C419"/>
<path d="M68.4516 54.7031H15.2903V65.702H68.4516V54.7031Z" fill="#7F6E5D"/>
<path d="M20.7897 54.7031H18.9565V65.702H20.7897V54.7031Z" fill="#CBB292"/>
<path d="M24.4561 54.7031H22.6229V65.702H24.4561V54.7031Z" fill="#CBB292"/>
<path d="M28.1223 54.7031H26.2892V65.702H28.1223V54.7031Z" fill="#CBB292"/>
<path d="M31.7887 54.7031H29.9556V65.702H31.7887V54.7031Z" fill="#CBB292"/>
<path d="M35.4549 54.7031H33.6218V65.702H35.4549V54.7031Z" fill="#CBB292"/>
<path d="M39.1212 54.7031H37.288V65.702H39.1212V54.7031Z" fill="#CBB292"/>
<path d="M42.7874 54.7031H40.9543V65.702H42.7874V54.7031Z" fill="#CBB292"/>
<path d="M46.4538 54.7031H44.6207V65.702H46.4538V54.7031Z" fill="#CBB292"/>
<path d="M50.1201 54.7031H48.2869V65.702H50.1201V54.7031Z" fill="#CBB292"/>
<path d="M53.7865 54.7031H51.9533V65.702H53.7865V54.7031Z" fill="#CBB292"/>
<path d="M57.4527 54.7031H55.6196V65.702H57.4527V54.7031Z" fill="#CBB292"/>
<path d="M61.119 54.7031H59.2858V65.702H61.119V54.7031Z" fill="#CBB292"/>
<path d="M64.7852 54.7031H62.952V65.702H64.7852V54.7031Z" fill="#CBB292"/>
<path d="M18.9566 65.7019H15.2903V68.4516H18.9566V65.7019Z" fill="#556080"/>
<path d="M68.4516 65.7019H64.7853V68.4516H68.4516V65.7019Z" fill="#556080"/>
<path d="M31.7877 51.9524L24.4561 44.6207L25.4881 43.5886C28.9674 40.1093 34.6099 40.1093 38.0892 43.5886L39.1212 44.6207L31.7896 51.9524C31.7886 51.9533 31.7886 51.9533 31.7877 51.9524Z" fill="#BDC3C7"/>
<path d="M33.6219 51.9533H29.9556V54.703H33.6219V51.9533Z" fill="#A5A5A4"/>
<path d="M51.9533 54.7031C53.4719 54.7031 54.703 53.472 54.703 51.9534C54.703 50.4348 53.4719 49.2037 51.9533 49.2037C50.4346 49.2037 49.2036 50.4348 49.2036 51.9534C49.2036 53.472 50.4346 54.7031 51.9533 54.7031Z" fill="#14A085"/>
<path d="M57.4527 54.7031C58.9713 54.7031 60.2024 53.472 60.2024 51.9534C60.2024 50.4348 58.9713 49.2037 57.4527 49.2037C55.934 49.2037 54.7029 50.4348 54.7029 51.9534C54.7029 53.472 55.934 54.7031 57.4527 54.7031Z" fill="#4C8056"/>
<path d="M54.703 50.1202C56.2217 50.1202 57.4528 48.8891 57.4528 47.3705C57.4528 45.8519 56.2217 44.6208 54.703 44.6208C53.1844 44.6208 51.9533 45.8519 51.9533 47.3705C51.9533 48.8891 53.1844 50.1202 54.703 50.1202Z" fill="#71C285"/>
<path d="M31.7877 51.9524C31.7877 51.9524 31.7886 51.9524 31.7895 51.9524L32.7052 51.0368V44.6207C32.7052 44.1139 32.2945 43.7042 31.7886 43.7042C31.2826 43.7042 30.872 44.1139 30.872 44.6207V51.0368L31.7877 51.9524Z" fill="#ECF0F1"/>
<path d="M38.2047 52.87H25.3726C24.8667 52.87 24.4561 52.4602 24.4561 51.9534C24.4561 51.4465 24.8667 51.0368 25.3726 51.0368H38.2047C38.7106 51.0368 39.1212 51.4465 39.1212 51.9534C39.1212 52.4602 38.7106 52.87 38.2047 52.87Z" fill="#D1D4D1"/>
<path d="M59.2859 25.3727L56.5362 20.7898V15.2904H62.131C63.0906 15.2904 63.8688 16.0686 63.8688 17.0282V20.7898L68.4517 25.3727H59.2859Z" fill="#F3D55B"/>
<path d="M50.1201 25.3727L49.2036 20.7898V15.2904H56.5361V20.7898L59.2859 25.3727H50.1201Z" fill="#ED7161"/>
<path d="M41.8709 25.3727V20.7898V15.2904H49.2035V20.7898L50.1201 25.3727H41.8709Z" fill="#F3D55B"/>
</svg>
