<svg width="84" height="84" viewBox="0 0 84 84" fill="none" xmlns="http://www.w3.org/2000/svg">
<circle cx="41.871" cy="41.871" r="40.871" fill="white" stroke="#464646" stroke-width="2"/>
<path d="M67.4132 26.9195V32.1111H61.1834V26.9195C61.1834 25.5438 62.0753 24.3757 63.314 23.9644C63.6234 23.8606 63.9548 23.8046 64.2983 23.8046C66.0188 23.8046 67.4132 25.199 67.4132 26.9195Z" fill="#CAE9FC"/>
<path d="M63.26 23.8046L63.314 23.9644C62.0753 24.3757 61.1834 25.5438 61.1834 26.9195V63.038C61.1834 65.2911 59.5091 67.4135 57.0302 67.4135C54.7366 67.4135 52.877 65.5539 52.877 63.2603V61.1837H30.8649V27.9579C30.8649 25.6642 32.7245 23.8046 35.0181 23.8046H63.26Z" fill="#FAFAFF"/>
<path d="M57.0302 67.4135H32.9415C29.5005 67.4135 26.7117 64.6247 26.7117 61.1837H52.877V63.2603C52.877 65.5539 54.7366 67.4135 57.0302 67.4135Z" fill="#CAE9FC"/>
<path d="M49.5938 30.0345C51.7223 30.0345 53.1885 31.8203 53.1885 33.9367C53.1885 36.8626 50.2638 38.8001 46.0003 42.4942C41.7371 38.8001 38.812 36.8626 38.812 33.9367C38.812 31.8203 40.2782 30.0345 42.4055 30.0345C45.1376 30.0345 46.0003 33.1494 46.0003 33.1494C46.0003 33.1494 46.8633 30.0345 49.5938 30.0345Z" fill="#E87288"/>
<path d="M16.3286 26.7119H22.5585V57.0305H16.3286V26.7119Z" fill="#E87288"/>
<path d="M22.5585 23.597V26.7119H16.3286V23.597C16.3286 21.8542 17.7498 20.4821 19.4435 20.4821C21.1628 20.4821 22.5585 21.8773 22.5585 23.597Z" fill="#FED2A4"/>
<path d="M16.3286 57.0305H22.5585C22.5585 59.726 21.6844 62.3497 20.0665 64.5063L19.4435 65.3369L18.8205 64.5063C17.2031 62.3497 16.3286 59.726 16.3286 57.0305Z" fill="#FED2A4"/>
<path d="M19.2561 16.3734C18.1772 16.4679 17.3669 17.4056 17.3669 18.4885V21.3118L17.3681 21.3127H21.5189L21.5201 21.3118V18.4419C21.5201 17.2324 20.4879 16.2655 19.2561 16.3734Z" fill="#E87288"/>
<path d="M37.1207 47.6857C36.5476 47.6857 36.0824 48.1509 36.0824 48.724C36.0824 49.2971 36.5476 49.7623 37.1207 49.7623C37.6938 49.7623 38.159 49.2971 38.159 48.724C38.159 48.1509 37.6938 47.6857 37.1207 47.6857Z" fill="black"/>
<path d="M37.1207 53.9155C36.5476 53.9155 36.0824 54.3807 36.0824 54.9538C36.0824 55.5269 36.5476 55.9921 37.1207 55.9921C37.6938 55.9921 38.159 55.5269 38.159 54.9538C38.159 54.3807 37.6938 53.9155 37.1207 53.9155Z" fill="black"/>
<path d="M54.9795 47.6857H41.2739C40.7004 47.6857 40.2356 48.1505 40.2356 48.724C40.2356 49.2975 40.7004 49.7623 41.2739 49.7623H54.9795C55.553 49.7623 56.0179 49.2975 56.0179 48.724C56.0179 48.1505 55.553 47.6857 54.9795 47.6857Z" fill="black"/>
<path d="M54.9795 53.9155H41.2739C40.7004 53.9155 40.2356 54.3803 40.2356 54.9538C40.2356 55.5273 40.7004 55.9921 41.2739 55.9921H54.9795C55.553 55.9921 56.0179 55.5273 56.0179 54.9538C56.0179 54.3803 55.553 53.9155 54.9795 53.9155Z" fill="black"/>
<path d="M18.4053 65.6828V67.381C18.4053 67.9014 18.7743 68.3666 19.2894 68.4408C19.9311 68.5329 20.4819 68.0377 20.4819 67.4135V65.6828L20.8972 65.1292C22.638 62.8084 23.5968 59.9324 23.5968 57.0304V27.7502H25.3124C25.512 27.7502 25.6734 27.9116 25.6734 28.1111V38.6901C25.6734 38.7911 25.7144 38.8892 25.787 38.9594C26.6821 39.8298 27.75 39.2101 27.75 38.3409V26.7561C27.75 26.1582 27.2653 25.6735 26.6675 25.6735H23.5968V23.5969C23.5968 22.5761 23.2297 21.6112 22.5585 20.8519V18.4683C22.5585 16.8297 21.3178 15.4227 19.6837 15.2994C17.8581 15.1619 16.3287 16.6082 16.3287 18.4054V20.8531C15.6643 21.6059 15.2903 22.5813 15.2903 23.5969V57.0304C15.2903 59.9324 16.2492 62.8084 17.9899 65.1292L18.4053 65.6828ZM21.5202 55.9921H17.367V27.7502H21.5202V55.9921ZM17.367 25.6735V23.5969C17.367 22.4568 18.2958 21.5203 19.4436 21.5203C20.5719 21.5203 21.5202 22.4353 21.5202 23.5969V25.6735H17.367ZM20.4819 18.4391V19.5767C20.1456 19.4895 19.7968 19.4437 19.4436 19.4437C19.0903 19.4437 18.7415 19.4895 18.4053 19.5767V18.4054C18.4053 17.7816 18.9585 17.2843 19.6001 17.3784C20.1144 17.4543 20.4819 17.9191 20.4819 18.4391ZM21.4979 58.0687C21.3145 60.0472 20.6121 61.9692 19.4695 63.5973C18.3274 61.9692 17.6245 60.0472 17.4412 58.0687H21.4979Z" fill="black"/>
<path d="M68.4516 32.1111V26.9195C68.4516 24.6259 66.5919 22.7663 64.2983 22.7663H35.0181C32.151 22.7663 29.8266 25.0907 29.8266 27.9578V60.1453H26.7116C26.1373 60.1453 25.6733 60.6122 25.6733 61.1865C25.675 65.1929 28.9347 68.4518 32.9415 68.4518H57.0302C60.0693 68.4518 62.2217 65.8637 62.2217 63.038V33.1494H67.4133C67.9868 33.1494 68.4516 32.6846 68.4516 32.1111ZM32.9415 66.3752C30.4345 66.3752 28.3364 64.5886 27.8542 62.2219H51.8387V63.2602C51.8387 64.4279 52.2264 65.5068 52.8794 66.3752H32.9415ZM60.1451 26.9293V63.038C60.1451 64.8222 58.8034 66.4964 56.8169 66.3683C55.173 66.262 53.9153 64.8526 53.9153 63.2051V61.1836C53.9153 60.6101 53.4505 60.1453 52.877 60.1453H31.9032V27.9578C31.9032 26.2373 33.2976 24.8429 35.0181 24.8429H60.7004C60.3447 25.4594 60.1451 26.1809 60.1451 26.9293ZM66.375 31.0727H62.2217V26.9195C62.2217 25.6435 63.3602 24.6649 64.6386 24.8705C65.6506 25.0331 66.375 25.9396 66.375 26.9645V31.0727Z" fill="black"/>
<path d="M43.4925 41.6996C44.0842 42.1993 44.6967 42.716 45.3464 43.279C45.5415 43.4481 45.7836 43.5324 46.0262 43.5324C46.2687 43.5324 46.5113 43.4481 46.7063 43.279C47.3557 42.716 47.9677 42.1997 48.5599 41.7C51.865 38.9108 54.2527 36.8954 54.2527 33.9366C54.2527 31.1661 52.2179 28.9962 49.6201 28.9962C47.8732 28.9962 46.7339 29.9327 46.0262 30.8854C45.3188 29.9327 44.1787 28.9962 42.4314 28.9962C39.8341 28.9962 37.7996 31.1661 37.7996 33.9366C37.7996 36.8954 40.1877 38.9104 43.4925 41.6996ZM42.4314 31.0752C44.3272 31.0752 44.9992 33.3376 45.0268 33.4337C45.1525 33.879 45.5585 34.1853 46.0217 34.1877H46.027C46.4898 34.1877 46.8978 33.8786 47.0255 33.4337C47.0531 33.3376 47.7252 31.0752 49.6197 31.0752C51.077 31.0752 52.1761 32.3066 52.1761 33.9391C52.1761 35.9329 50.3108 37.5074 47.2202 40.1154C46.8329 40.4423 46.4366 40.7765 46.0262 41.1273C45.6153 40.7765 45.2191 40.4423 44.8317 40.1154C41.7415 37.507 39.8762 35.9329 39.8762 33.9391C39.8762 32.3066 40.975 31.0752 42.4314 31.0752Z" fill="black"/>
</svg>
