<svg width="84" height="84" viewBox="0 0 84 84" fill="none" xmlns="http://www.w3.org/2000/svg">
<circle cx="41.871" cy="41.871" r="40.871" fill="white" stroke="#464646" stroke-width="2"/>
<path d="M61.3946 59.7382C62.4796 60.6157 63.4136 61.644 64.1778 62.795C65.6967 65.0593 66.5647 67.7764 66.5647 70.6256H59.0171V58.1721C59.8662 58.6155 60.6682 59.1439 61.3946 59.7382Z" fill="#AAB2BD"/>
<path d="M25.053 58.1721V70.6256H17.5054C17.5054 66.333 19.4583 62.3516 22.6849 59.7288C23.4114 59.1344 24.2039 58.6155 25.053 58.1721Z" fill="#AAB2BD"/>
<path d="M42.1578 56.474C42.5729 58.0967 44.0541 59.3043 45.8089 59.3043C47.8939 59.3043 49.5827 57.6155 49.5827 55.5305C49.5827 55.0399 49.4884 54.5682 49.3186 54.1342L53.3565 55.7853V61.1912C53.3565 62.229 52.5074 63.0781 51.4696 63.0781H32.6006C31.5628 63.0781 30.7137 62.229 30.7137 61.1912V55.7853L34.7517 54.1342C34.5819 54.5682 34.4875 55.0399 34.4875 55.5305C34.4875 57.6155 36.1763 59.3043 38.2613 59.3043C40.0162 59.3043 41.4974 58.0967 41.9125 56.474V56.4645C41.9502 56.474 41.9974 56.474 42.0351 56.474C42.0729 56.474 42.12 56.474 42.1578 56.4645V56.474Z" fill="#AAB2BD"/>
<path d="M59.2222 58.1721V70.6256H25.2581V58.1721C25.6449 57.9645 26.0411 57.7853 26.4468 57.6154L30.9188 55.7852V61.1911C30.9188 62.2289 31.7679 63.078 32.8057 63.078H51.6747C52.7124 63.078 53.5616 62.2289 53.5616 61.1911V55.7852L58.0335 57.6154C58.4392 57.7853 58.8354 57.9645 59.2222 58.1721Z" fill="#FCD770"/>
<path d="M40.9165 53.1057C41.775 55.0492 43.7091 56.4267 45.9734 56.4644V56.4738C45.5583 58.0966 44.077 59.3042 42.3222 59.3042C40.2372 59.3042 38.5484 57.6154 38.5484 55.5304C38.5484 55.0398 38.6428 54.5681 38.8126 54.1341L39.973 53.6623C40.3127 53.5208 40.6335 53.3321 40.9165 53.1057Z" fill="#E6E9ED"/>
<path d="M44.5488 53.6623L45.7092 54.1341C45.879 54.5681 45.9734 55.0398 45.9734 55.5304C45.9734 57.6154 44.2846 59.3042 42.1996 59.3042C40.4448 59.3042 38.9635 58.0966 38.5484 56.4738V56.4644C40.8127 56.4267 42.7468 55.0492 43.6053 53.1057C43.8884 53.3321 44.2091 53.5208 44.5488 53.6623Z" fill="#E6E9ED"/>
<path d="M58.9671 45.7468C57.5425 43.2467 56.8443 40.4069 56.8443 37.5294V31.9441V29.1138C56.8443 20.7737 50.0892 14.0186 41.7491 14.0186C33.4091 14.0186 26.654 20.7737 26.654 29.1138V31.9441V37.5294C26.654 40.4352 25.9086 43.2938 24.484 45.8223C22.767 48.8602 21.8235 52.3981 21.9462 56.1719C21.9839 57.389 22.1443 58.5777 22.399 59.7287C23.1255 59.1343 23.918 58.6154 24.7671 58.172C25.1539 57.9645 25.5501 57.7852 25.9558 57.6154L30.4278 55.7851L34.4657 54.1341L35.6262 53.6623C35.9658 53.5208 36.2866 53.3321 36.5696 53.1057C37.447 52.3981 37.9754 51.3226 37.9754 50.1621V48.9923C36.2394 47.8696 34.7488 46.4355 33.5506 44.7845C31.5693 42.0296 30.4278 38.6615 30.4278 35.1047V34.6141V34.6047C30.7202 34.7179 31.041 34.7745 31.3712 34.7745H32.3147C38.7773 34.7745 40.1642 30.6705 40.6547 28.1232C40.7491 27.6043 41.2114 27.2269 41.7491 27.2269C42.2869 27.2269 42.7492 27.6043 42.8435 28.1232C43.3341 30.6705 44.721 34.7745 51.1836 34.7745H52.1271C52.4573 34.7745 52.7781 34.7179 53.0705 34.6047V34.6141V35.1047C53.0705 40.8031 50.1553 45.9921 45.5229 48.9923V50.1621C45.5229 51.3226 46.0513 52.3981 46.9287 53.1057C47.2117 53.3321 47.5325 53.5208 47.8721 53.6623L49.0326 54.1341L53.0705 55.7851L57.5425 57.6154C57.9482 57.7852 58.3444 57.9645 58.7312 58.172C59.5803 58.6154 60.3823 59.1438 61.1087 59.7381C61.4012 58.3796 61.5616 56.9738 61.5616 55.5304C61.5616 51.9641 60.6181 48.6338 58.9671 45.7468Z" fill="#B27946"/>
<path d="M46.6924 53.1058C45.8339 55.0493 43.8998 56.4267 41.6356 56.4645C41.5978 56.4739 41.5506 56.4739 41.5129 56.4739C41.4752 56.4739 41.428 56.4739 41.3903 56.4645C39.126 56.4267 37.1919 55.0493 36.3334 53.1058C37.2108 52.3982 37.7391 51.3227 37.7391 50.1622V48.9924C38.8996 49.7471 40.1638 50.3604 41.5129 50.8132C42.862 50.3604 44.1263 49.7471 45.2867 48.9924V50.1622C45.2867 51.3227 45.815 52.3982 46.6924 53.1058Z" fill="#F0D0B4"/>
<path d="M53.4385 35.1048C53.4385 40.8032 50.5233 45.9922 45.8909 48.9924C44.7305 49.7471 43.4663 50.3604 42.1171 50.8132C40.768 50.3604 39.5038 49.7471 38.3433 48.9924C36.6074 47.8696 35.1167 46.4356 33.9186 44.7846C31.9373 42.0297 30.7957 38.6616 30.7957 35.1048V34.6142V34.6048C31.0882 34.718 31.409 34.7746 31.7392 34.7746H32.6826C39.1453 34.7746 40.5321 30.6706 41.0227 28.1233C41.1171 27.6044 41.5794 27.227 42.1171 27.227C42.6549 27.227 43.1172 27.6044 43.2115 28.1233C43.7021 30.6706 45.089 34.7746 51.5516 34.7746H52.4951C52.8253 34.7746 53.146 34.718 53.4385 34.6048V34.6142V35.1048Z" fill="#F0D0B4"/>
<path d="M43.6525 24.0098C44.1431 24.0098 44.6242 24.189 44.9922 24.557C45.3601 24.9249 45.5394 25.4061 45.5394 25.8967C45.8885 26.2363 46.096 26.708 46.096 27.2269C46.096 27.7458 45.8885 28.2175 45.5394 28.5572C45.5394 29.0478 45.3601 29.5289 44.9922 29.8969C44.6242 30.2648 44.1431 30.4441 43.6525 30.4441C43.3128 30.7932 42.8411 31.0007 42.3222 31.0007C41.8033 31.0007 41.3316 30.7932 40.992 30.4441C40.5014 30.4441 40.0202 30.2648 39.6523 29.8969C39.2843 29.5289 39.1051 29.0478 39.1051 28.5572C38.756 28.2175 38.5484 27.7458 38.5484 27.2269C38.5484 26.708 38.756 26.2363 39.1051 25.8967C39.1051 25.4061 39.2843 24.9249 39.6523 24.557C40.0202 24.189 40.5014 24.0098 40.992 24.0098C41.3316 23.6607 41.8033 23.4531 42.3222 23.4531C42.8411 23.4531 43.3128 23.6607 43.6525 24.0098Z" fill="#FF826E"/>
<path d="M41.7069 37.6049C42.228 37.6049 42.6504 37.1825 42.6504 36.6615C42.6504 36.1404 42.228 35.718 41.7069 35.718C41.1859 35.718 40.7635 36.1404 40.7635 36.6615C40.7635 37.1825 41.1859 37.6049 41.7069 37.6049Z" fill="black"/>
<path d="M41.7069 37.6049C42.228 37.6049 42.6504 37.1825 42.6504 36.6615C42.6504 36.1404 42.228 35.718 41.7069 35.718C41.1859 35.718 40.7635 36.1404 40.7635 36.6615C40.7635 37.1825 41.1859 37.6049 41.7069 37.6049Z" fill="black"/>
<path d="M42.3222 44.2091C41.2816 44.2091 40.4353 43.3628 40.4353 42.3222H38.5484C38.5484 44.4035 40.241 46.096 42.3222 46.096C44.4035 46.096 46.096 44.4035 46.096 42.3222H44.2091C44.2091 43.3628 43.3629 44.2091 42.3222 44.2091Z" fill="black"/>
<path d="M43.2051 24.7899L41.4918 24.0012C41.189 24.6597 40.9437 25.3475 40.7635 26.0476L42.5919 26.5183C42.7428 25.9287 42.9495 25.3466 43.2051 24.7899Z" fill="black"/>
<path d="M47.3971 18.7358V16.8489C43.4686 16.8489 39.7467 18.7585 37.4409 21.9587L38.9721 23.0615C40.9241 20.3529 44.0733 18.7358 47.3971 18.7358Z" fill="black"/>
<path d="M41.7069 28.1703C42.228 28.1703 42.6504 27.7479 42.6504 27.2269C42.6504 26.7058 42.228 26.2834 41.7069 26.2834C41.1859 26.2834 40.7635 26.7058 40.7635 27.2269C40.7635 27.7479 41.1859 28.1703 41.7069 28.1703Z" fill="black"/>
<path d="M62.2608 59.3769C62.4995 58.1098 62.6268 56.8192 62.6268 55.5305C62.6268 51.934 61.6872 48.3885 59.9097 45.2761C58.6012 42.9835 57.9096 40.3051 57.9096 37.5323V29.1139C57.9096 20.27 50.7149 13.0753 41.871 13.0753C33.0271 13.0753 25.8323 20.27 25.8323 29.1139V37.5332C25.8323 40.2824 25.1238 42.9882 23.7841 45.3591C21.9246 48.6508 21.0057 52.3991 21.1264 56.1994C21.1594 57.2447 21.2972 58.3042 21.4991 59.3609C18.3102 62.1516 16.3979 66.2112 16.3979 70.6256V71.5691H67.3441V70.6256C67.3441 66.2197 65.4393 62.1676 62.2608 59.3769ZM23.0114 56.139C22.9029 52.6841 23.7388 49.2782 25.4276 46.2875C26.9267 43.6336 27.7192 40.607 27.7192 37.5332V31.9442V29.1139C27.7192 21.3106 34.0677 14.9622 41.871 14.9622C49.6742 14.9622 56.0227 21.3106 56.0227 29.1139V31.9442V37.5323C56.0227 40.6334 56.8001 43.6345 58.2719 46.212C59.8871 49.0395 60.74 52.2623 60.74 55.5305C60.74 56.3843 60.6749 57.239 60.5597 58.0853C59.7682 57.5692 58.9257 57.1136 58.0257 56.7456L48.3468 52.785C47.2779 52.3491 46.5882 51.3208 46.5882 50.166V49.4886C51.2073 46.2969 54.1028 41.0145 54.132 35.1944C55.2566 34.5406 56.0227 33.3358 56.0227 31.9442C56.0227 30.4281 55.1283 29.1214 53.8207 28.5233C54.0254 28.127 54.1358 27.6855 54.1358 27.227C54.1358 26.5987 53.933 26.0024 53.5584 25.5127C53.4763 24.9014 53.198 24.3353 52.7537 23.891C52.3093 23.4475 51.7451 23.1692 51.1328 23.0881C50.1545 22.338 48.6817 22.338 47.7034 23.0881C47.092 23.1692 46.5269 23.4475 46.0825 23.8919C45.6382 24.3363 45.3598 24.9014 45.2778 25.5127C44.9042 26.0024 44.7013 26.5987 44.7013 27.227C44.7013 27.8553 44.9042 28.4516 45.2787 28.9412C45.3608 29.5526 45.6391 30.1187 46.0835 30.563C46.5278 31.0064 47.092 31.2848 47.7043 31.3659C48.193 31.7414 48.7902 31.9442 49.4186 31.9442C50.0469 31.9442 50.6441 31.7414 51.1328 31.3659C51.7442 31.2848 52.3093 31.0064 52.7537 30.5621C52.8565 30.4592 52.949 30.3479 53.0339 30.2328C53.6886 30.5319 54.1358 31.1857 54.1358 31.9442C54.1358 32.9849 53.2895 33.8311 52.2489 33.8311H51.3055C45.6825 33.8311 44.3843 30.4734 43.8966 27.9497C43.7107 26.9845 42.8588 26.2835 41.871 26.2835C40.8832 26.2835 40.0312 26.9836 39.8463 27.9487C39.3576 30.4734 38.0594 33.8311 32.4365 33.8311H31.493C30.4524 33.8311 29.6061 32.9849 29.6061 31.9442C29.6061 30.9036 30.4524 30.0573 31.493 30.0573C32.5337 30.0573 33.3799 30.9036 33.3799 31.9442H35.2668C35.2668 29.863 33.5743 28.1704 31.493 28.1704C29.4118 28.1704 27.7192 29.863 27.7192 31.9442C27.7192 33.3358 28.4853 34.5406 29.6099 35.1954C29.6392 41.0145 32.5346 46.2969 37.1537 49.4896V50.1669C37.1537 51.3217 36.4641 52.3491 35.3951 52.7869L25.7163 56.7466C24.8191 57.1136 23.9794 57.5674 23.1897 58.0815C23.0982 57.4296 23.0322 56.7805 23.0114 56.139ZM26.4314 58.4919L29.6061 57.1928V61.1911C29.6061 62.7516 30.876 64.0215 32.4365 64.0215H51.3055C52.8659 64.0215 54.1358 62.7516 54.1358 61.1911V57.1938L57.3105 58.4929C57.5143 58.5759 57.7115 58.6702 57.9096 58.7627V69.6822H25.8323V58.7618C26.0305 58.6693 26.2277 58.5759 26.4314 58.4919ZM41.871 49.815C35.8433 47.6715 31.7648 42.0901 31.5166 35.718H32.4365C37.633 35.718 40.7492 33.2245 41.6974 28.3063C41.7285 28.1478 42.0134 28.1487 42.0436 28.3063C42.9927 33.2245 46.1089 35.718 51.3055 35.718H52.2253C51.9772 42.0901 47.8987 47.6715 41.871 49.815ZM41.5728 51.7085L41.871 51.8076L42.1691 51.7085C43.0626 51.4104 43.9192 51.0462 44.7343 50.6207C44.8306 51.6265 45.2344 52.5558 45.8835 53.2888C45.0325 54.6672 43.5201 55.5305 41.871 55.5305C40.2218 55.5305 38.7095 54.6672 37.8585 53.2888C38.5076 52.5558 38.9104 51.6265 39.0076 50.6207C39.8218 51.0453 40.6794 51.4104 41.5728 51.7085ZM48.3798 54.838C48.4364 55.0634 48.4751 55.2936 48.4751 55.5305C48.4751 57.0909 47.2052 58.3608 45.6448 58.3608C44.7325 58.3608 43.9079 57.9202 43.3862 57.2239C45.0287 56.8352 46.4712 55.839 47.3996 54.4162C47.4779 54.453 47.5505 54.4993 47.6326 54.5323L48.3798 54.838ZM36.1103 54.5323C36.1914 54.4993 36.265 54.453 36.3433 54.4162C37.2717 55.839 38.7142 56.8352 40.3567 57.2239C39.8341 57.9202 39.0095 58.3608 38.0972 58.3608C36.5367 58.3608 35.2668 57.0909 35.2668 55.5305C35.2668 55.2936 35.3065 55.0634 35.3631 54.838L36.1103 54.5323ZM33.3913 55.6446C33.4535 58.1919 35.5357 60.2477 38.0972 60.2477C39.6237 60.2477 41.0011 59.508 41.871 58.341C42.7408 59.508 44.1183 60.2477 45.6448 60.2477C48.2062 60.2477 50.2884 58.1919 50.3507 55.6446L52.2489 56.4211V61.1911C52.2489 61.711 51.8262 62.1346 51.3055 62.1346H32.4365C31.9157 62.1346 31.493 61.711 31.493 61.1911V56.4211L33.3913 55.6446ZM46.8646 27.894C46.6863 27.7157 46.5882 27.4789 46.5882 27.227C46.5882 26.9751 46.6863 26.7383 46.8646 26.56L47.1411 26.2835V25.892C47.1411 25.6401 47.2392 25.4024 47.4175 25.225C47.5949 25.0467 47.8326 24.9486 48.0845 24.9486H48.4761L48.7525 24.6712C49.1063 24.3155 49.7308 24.3155 50.0846 24.6712L50.3611 24.9486H50.7526C51.0045 24.9486 51.2422 25.0467 51.4196 25.224C51.597 25.4024 51.6961 25.6392 51.6961 25.892V26.2835L51.9725 26.56C52.1508 26.7383 52.2489 26.9751 52.2489 27.227C52.2489 27.4789 52.1508 27.7157 51.9725 27.894L51.6961 28.1704V28.562C51.6961 28.8139 51.5979 29.0516 51.4196 29.229C51.2422 29.4073 51.0045 29.5054 50.7526 29.5054H50.3611L50.0846 29.7828C49.7308 30.1385 49.1063 30.1385 48.7525 29.7828L48.4761 29.5054H48.0845C47.8326 29.5054 47.5949 29.4073 47.4175 29.2299C47.2401 29.0516 47.1411 28.8148 47.1411 28.562V28.1704L46.8646 27.894ZM23.9454 59.8354V69.6822H18.3178C18.6027 65.6706 20.6924 62.0723 23.9454 59.8354ZM59.7965 69.6822V59.8354C63.0495 62.0714 65.1393 65.6697 65.4242 69.6822H59.7965Z" fill="black"/>
<path d="M40.7635 65.9084H42.6504V67.7953H40.7635V65.9084Z" fill="black"/>
<path d="M31.9033 65.9084H52.6591V67.7953H31.9033V65.9084Z" fill="black"/>
<path d="M40.7635 65.9084H42.6504V67.7953H40.7635V65.9084Z" fill="black"/>
</svg>
