<svg width="84" height="84" viewBox="0 0 84 84" fill="none" xmlns="http://www.w3.org/2000/svg">
<circle cx="41.871" cy="41.871" r="40.871" fill="white" stroke="#464646" stroke-width="2"/>
<path d="M25.9654 38.8579C23.1728 37.2202 21.2924 34.1952 21.2924 30.7243C21.2924 25.5153 25.5153 21.2924 30.7242 21.2924C35.9332 21.2924 40.1561 25.5153 40.1561 30.7243C40.1561 35.4273 36.71 39.315 32.2076 40.0283C33.2966 41.029 34.0134 42.424 34.1308 43.9889L38.5758 43.4212C39.1906 38.6573 42.093 34.6136 46.1582 32.4409V27.4729L43.8988 26.9412C43.6141 25.9475 43.2171 24.9906 42.7147 24.0842L43.9374 22.1104L39.3389 17.512L37.3643 18.7338C36.4588 18.2314 35.5019 17.8344 34.5073 17.5497L33.9756 15.2903H27.4728L26.9412 17.5488C25.9466 17.8344 24.9897 18.2305 24.0842 18.733L22.1095 17.512L17.5111 22.1104L18.7338 24.0842C18.2313 24.9906 17.8343 25.9475 17.5497 26.9412L15.2903 27.4729V33.9757L17.5497 34.5073C17.8343 35.5011 18.2313 36.458 18.7338 37.3643L17.5111 39.3381L21.9638 43.7899L22.1858 43.7934C22.4294 41.5357 23.9256 39.6571 25.9654 38.8579Z" fill="#F0BC5E"/>
<path d="M31.9375 50.1582C33.7878 48.9286 35.0114 46.827 35.0114 44.4433C35.0114 42.99 34.5535 41.6429 33.7793 40.5325C38.045 39.2215 41.0135 35.3099 41.0135 30.7243C41.0135 25.0506 36.3979 20.435 30.7242 20.435C25.0505 20.435 20.4349 25.0506 20.4349 30.7243C20.4349 33.8591 21.8969 36.8181 24.3208 38.7559C22.4954 39.9898 21.2924 42.0785 21.2924 44.4433C21.2924 46.827 22.5159 48.9286 24.3663 50.1582C19.1162 51.7787 15.2903 56.6747 15.2903 62.4496V65.0219C15.2903 66.9134 16.8285 68.4516 18.72 68.4516H26.0083C26.8477 68.4516 27.6066 68.1061 28.1519 67.5488C28.6972 68.1061 29.4561 68.4516 30.2955 68.4516H37.5837C39.4752 68.4516 41.0135 66.9134 41.0135 65.0219V62.4496C41.0135 56.6747 37.1876 51.7787 31.9375 50.1582ZM22.1498 30.7243C22.1498 25.9964 25.9963 22.1499 30.7242 22.1499C35.4521 22.1499 39.2986 25.9964 39.2986 30.7243C39.2986 34.8331 36.4382 38.2929 32.4485 39.104C31.2721 38.1557 29.7785 37.5838 28.1519 37.5838C27.4308 37.5838 26.7371 37.697 26.0837 37.9036C23.6546 36.3285 22.1498 33.6207 22.1498 30.7243ZM23.0072 44.4433C23.0072 41.6061 25.3146 39.2987 28.1519 39.2987C30.9892 39.2987 33.2965 41.6061 33.2965 44.4433C33.2965 47.2806 30.9892 49.588 28.1519 49.588C25.3146 49.588 23.0072 47.2806 23.0072 44.4433ZM31.1461 51.723L28.1519 55.145L25.1577 51.723C26.112 51.4563 27.1135 51.3028 28.1519 51.3028C29.1902 51.3028 30.1917 51.4563 31.1461 51.723ZM39.2986 65.0219C39.2986 65.9676 38.5295 66.7368 37.5837 66.7368H30.2955C29.5864 66.7368 29.0093 66.1597 29.0093 65.4506C29.0093 64.7415 29.5864 64.1644 30.2955 64.1644H36.7263V62.4496H35.0114V59.0198H33.2965V62.4496H30.2955C29.4561 62.4496 28.6972 62.7951 28.1519 63.3525C27.6066 62.7951 26.8477 62.4496 26.0083 62.4496H23.0072V59.0198H21.2924V62.4496H19.5775V64.1644H26.0083C26.7174 64.1644 27.2944 64.7415 27.2944 65.4506C27.2944 66.1597 26.7174 66.7368 26.0083 66.7368H18.72C17.7743 66.7368 17.0052 65.9676 17.0052 65.0219V62.4496C17.0052 57.9892 19.6444 54.1435 23.4377 52.3635L28.1519 57.7499L32.8661 52.3635C36.6594 54.1435 39.2986 57.9892 39.2986 62.4496V65.0219Z" fill="black"/>
<path d="M53.0177 29.8668C44.5076 29.8668 37.5837 36.7907 37.5837 45.3007C37.5837 53.8108 44.5076 60.7347 53.0177 60.7347C61.5278 60.7347 68.4516 53.8108 68.4516 45.3007C68.4516 36.7907 61.5278 29.8668 53.0177 29.8668ZM66.693 46.1582C66.4975 49.2947 65.2499 52.144 63.2907 54.3622L60.8993 51.9708L59.6868 53.1832L62.0782 55.5746C59.86 57.533 57.0108 58.7814 53.8751 58.9761V55.59H52.1602V58.9761C49.0237 58.7806 46.1744 57.533 43.9571 55.5746L46.3485 53.1832L45.1361 51.9708L42.7447 54.3622C40.7854 52.144 39.5378 49.2947 39.3424 46.1582H42.7284V44.4433H39.3424C39.5378 41.3068 40.7854 38.4575 42.7447 36.2393L45.1361 38.6307L46.3485 37.4183L43.9571 35.0269C46.1753 33.0685 49.0246 31.8201 52.1602 31.6254V35.0115H53.8751V31.6254C57.0116 31.8209 59.8609 33.0685 62.0782 35.0269L59.6868 37.4183L60.8993 38.6307L63.2907 36.2393C65.2499 38.4575 66.4975 41.3068 66.693 44.4433H63.3069V46.1582H66.693Z" fill="black"/>
<path d="M35.8689 30.7243C35.8689 27.887 33.5615 25.5797 30.7242 25.5797C27.887 25.5797 25.5796 27.887 25.5796 30.7243C25.5796 33.5616 27.887 35.8689 30.7242 35.8689C33.5615 35.8689 35.8689 33.5616 35.8689 30.7243ZM27.2945 30.7243C27.2945 28.8328 28.8327 27.2945 30.7242 27.2945C32.6157 27.2945 34.154 28.8328 34.154 30.7243C34.154 32.6158 32.6157 34.1541 30.7242 34.1541C28.8327 34.1541 27.2945 32.6158 27.2945 30.7243Z" fill="black"/>
<path d="M54.2222 47.7269L55.4346 46.5145L57.9025 48.9824L56.6901 50.1948L54.2222 47.7269Z" fill="black"/>
<path d="M52.1602 36.7264H53.8751V42.7285H52.1602V36.7264Z" fill="black"/>
<path d="M53.0177 48.7306C51.1262 48.7306 49.5879 47.1923 49.5879 45.3008C49.5879 43.4093 51.1262 41.871 53.0177 41.871C54.9092 41.871 56.4474 43.4093 56.4474 45.3008C56.4474 47.1923 54.9092 48.7306 53.0177 48.7306Z" fill="#F0BC5E"/>
</svg>
