<svg width="84" height="84" viewBox="0 0 84 84" fill="none" xmlns="http://www.w3.org/2000/svg">
<circle cx="41.871" cy="41.871" r="40.871" fill="white" stroke="#464646" stroke-width="2"/>
<path d="M41.9996 32.3171V70.6935H59.5996C59.5996 70.6935 62.9435 53.3549 62.8615 42.914C62.7794 32.4731 41.9996 32.3171 41.9996 32.3171Z" fill="#543C2A"/>
<path d="M41.9996 32.3171V70.6935H24.4002C24.4002 70.6935 21.0563 53.3549 21.1383 42.914C21.2201 32.4731 41.9996 32.3171 41.9996 32.3171Z" fill="#543C2A"/>
<path d="M46.2925 57.8239H37.7071V67.4396H46.2925V57.8239Z" fill="#FDCC9B"/>
<path d="M37.7071 58.9565C37.7071 58.9565 41.3185 61.2562 46.2925 60.7238V57.8239H37.7071V58.9565Z" fill="#FCBC85"/>
<path d="M25.3274 47.6931C27.641 47.6931 29.5166 45.5533 29.5166 42.9137C29.5166 40.2741 27.641 38.1343 25.3274 38.1343C23.0138 38.1343 21.1383 40.2741 21.1383 42.9137C21.1383 45.5533 23.0138 47.6931 25.3274 47.6931Z" fill="#FCBC85"/>
<path d="M58.6724 47.6931C60.986 47.6931 62.8615 45.5533 62.8615 42.9137C62.8615 40.2741 60.986 38.1343 58.6724 38.1343C56.3588 38.1343 54.4832 40.2741 54.4832 42.9137C54.4832 45.5533 56.3588 47.6931 58.6724 47.6931Z" fill="#FCBC85"/>
<path d="M58.6555 33.7851C58.6555 26.7451 53.5043 21.5939 42 21.5939C30.4957 21.5939 25.3447 26.7451 25.3447 33.7851C25.3447 40.8251 24.1429 59.3695 42 59.3695C59.8573 59.3695 58.6555 40.8251 58.6555 33.7851Z" fill="#FDCC9B"/>
<path d="M33.8875 43.744C34.8832 43.744 35.6904 42.8599 35.6904 41.7694C35.6904 40.6788 34.8832 39.7947 33.8875 39.7947C32.8917 39.7947 32.0845 40.6788 32.0845 41.7694C32.0845 42.8599 32.8917 43.744 33.8875 43.744Z" fill="#3B2519"/>
<path d="M33.1015 41.4367C33.3993 41.4367 33.6407 41.1953 33.6407 40.8975C33.6407 40.5997 33.3993 40.3583 33.1015 40.3583C32.8038 40.3583 32.5624 40.5997 32.5624 40.8975C32.5624 41.1953 32.8038 41.4367 33.1015 41.4367Z" fill="white"/>
<path d="M31.0033 37.5119C31.8558 37.8381 33.2244 36.4026 36.3583 37.6515C36.9296 37.8793 37.2705 35.704 33.9114 35.704C31.0033 35.704 30.488 37.3147 31.0033 37.5119Z" fill="#684B37"/>
<path d="M50.335 43.744C51.3308 43.744 52.138 42.8599 52.138 41.7694C52.138 40.6788 51.3308 39.7947 50.335 39.7947C49.3393 39.7947 48.5321 40.6788 48.5321 41.7694C48.5321 42.8599 49.3393 43.744 50.335 43.744Z" fill="#3B2519"/>
<path d="M49.549 41.4367C49.8468 41.4367 50.0882 41.1953 50.0882 40.8975C50.0882 40.5997 49.8468 40.3583 49.549 40.3583C49.2513 40.3583 49.0099 40.5997 49.0099 40.8975C49.0099 41.1953 49.2513 41.4367 49.549 41.4367Z" fill="white"/>
<path d="M52.9966 37.5119C52.144 37.8381 50.7751 36.4026 47.6415 37.6515C47.0702 37.8793 46.7294 35.704 50.0882 35.704C52.9966 35.704 53.5115 37.3147 52.9966 37.5119Z" fill="#684B37"/>
<path d="M41.9997 48.7151C40.2184 48.7151 39.1453 47.3841 39.1453 48.0281C39.1453 48.6719 39.6605 49.8956 41.9997 49.8956C44.3395 49.8956 44.8544 48.6722 44.8544 48.0281C44.8547 47.3841 43.7813 48.7151 41.9997 48.7151Z" fill="#FCBC85"/>
<path d="M41.9996 54.6353C41.3837 54.6353 41.0125 54.1753 41.0125 54.3975C41.0125 54.6204 41.1906 55.0436 41.9996 55.0436C42.809 55.0436 42.9871 54.6204 42.9871 54.3975C42.9871 54.1753 42.6162 54.6353 41.9996 54.6353Z" fill="#FCBC85"/>
<path d="M41.9996 52.9948C39.1759 52.9948 37.4749 51.8449 37.4749 52.1364C37.4749 52.4279 38.2912 53.5745 41.9996 53.5745C45.708 53.5745 46.5247 52.4276 46.5247 52.1364C46.5247 51.8452 44.8234 52.9948 41.9996 52.9948Z" fill="#F7945E"/>
<path d="M31.569 50.5264C32.9203 50.5264 34.0157 49.431 34.0157 48.0798C34.0157 46.7285 32.9203 45.6331 31.569 45.6331C30.2178 45.6331 29.1224 46.7285 29.1224 48.0798C29.1224 49.431 30.2178 50.5264 31.569 50.5264Z" fill="#F9AA8D"/>
<path d="M52.7314 50.5264C54.0826 50.5264 55.1781 49.431 55.1781 48.0798C55.1781 46.7285 54.0826 45.6331 52.7314 45.6331C51.3801 45.6331 50.2847 46.7285 50.2847 48.0798C50.2847 49.431 51.3801 50.5264 52.7314 50.5264Z" fill="#F9AA8D"/>
<path d="M41.9996 61.6876V72.505H23.1985C23.1985 68.1266 32.1268 61.6876 41.9996 61.6876Z" fill="#F5A860"/>
<path d="M41.9996 61.6876V72.505H60.8009C60.8009 68.1266 51.873 61.6876 41.9996 61.6876Z" fill="#F5A860"/>
<path d="M38.4168 61.9656C38.3616 61.9735 38.3061 61.9846 38.2506 61.9931C37.0932 62.1782 35.964 62.4396 34.8793 62.7679L41.9999 72.5049V67.0964L38.7877 61.9218C38.6648 61.939 38.5395 61.9469 38.4168 61.9656Z" fill="#F18B45"/>
<path d="M45.5827 61.9656C45.6382 61.9735 45.6937 61.9846 45.7492 61.9931C46.9066 62.1783 48.0358 62.4397 49.1205 62.7679L41.9996 72.5049V67.0964L45.2117 61.9221C45.3347 61.9391 45.4603 61.9469 45.5827 61.9656Z" fill="#F18B45"/>
<path d="M41.9996 13C22.5972 13 20.3234 26.7246 21.1383 42.9137C21.9532 59.1031 35.6903 67.0961 35.6903 67.0961C35.6903 67.0961 20.2968 45.0662 33.1014 25.7491C33.1014 25.7491 30.6971 29.8839 30.8274 33.3473C30.8274 33.3473 33.8439 32.3171 41.9999 32.3171C50.1562 32.3171 53.1724 33.3473 53.1724 33.3473C53.303 29.8839 50.8986 25.7491 50.8986 25.7491C63.7032 45.0659 48.3095 67.0961 48.3095 67.0961C48.3095 67.0961 62.0469 59.1031 62.8618 42.9137C63.6764 26.7246 61.4026 13 41.9996 13Z" fill="#684B37"/>
<path d="M37.707 62.062L41.9996 69.1908L46.2921 62.0617C46.2924 62.0617 41.8389 60.4402 37.707 62.062Z" fill="#FDCC9B"/>
</svg>
