<svg width="84" height="84" viewBox="0 0 84 84" fill="none" xmlns="http://www.w3.org/2000/svg">
<circle cx="41.871" cy="41.871" r="40.871" fill="white" stroke="#464646" stroke-width="2"/>
<path d="M41.5122 26.264V67.6825C41.5122 67.6825 18 70.1189 18 58.6571C18 58.6571 24.3154 59.4531 23.0224 54.1859C21.3833 47.5083 22.3002 36.6937 23.0224 30.7829C23.7446 24.8719 41.5122 26.264 41.5122 26.264Z" fill="#330C00"/>
<path d="M41.436 26.264V67.6825C41.436 67.6825 64.9482 70.1189 64.9482 58.6571C64.9482 58.6571 58.6328 59.4531 59.9258 54.1859C61.5649 47.5083 60.6481 36.6937 59.9258 30.7829C59.2034 24.8719 41.436 26.264 41.436 26.264Z" fill="#330C00"/>
<path d="M41.9224 61.523V55.4887C41.9224 55.4887 51.5007 55.1986 51.5007 60.9957L41.9224 61.523Z" fill="#00B497"/>
<path d="M41.1019 61.523V55.4887C41.1019 55.4887 31.5236 55.1986 31.5236 60.9957L41.1019 61.523Z" fill="#00B497"/>
<path d="M45.3169 55.4882H37.7077V64.0106H45.3169V55.4882Z" fill="#FDCC9B"/>
<path d="M37.7077 56.4921C37.7077 56.4921 40.9082 58.5303 45.3169 58.0584V55.4882H37.7077V56.4921Z" fill="#FCBC85"/>
<path d="M26.7352 46.5094C28.7858 46.5094 30.448 44.6129 30.448 42.2734C30.448 39.9339 28.7858 38.0374 26.7352 38.0374C24.6847 38.0374 23.0224 39.9339 23.0224 42.2734C23.0224 44.6129 24.6847 46.5094 26.7352 46.5094Z" fill="#FCBC85"/>
<path d="M56.2886 46.5094C58.3392 46.5094 60.0014 44.6129 60.0014 42.2734C60.0014 39.9339 58.3392 38.0374 56.2886 38.0374C54.2381 38.0374 52.5758 39.9339 52.5758 42.2734C52.5758 44.6129 54.2381 46.5094 56.2886 46.5094Z" fill="#FCBC85"/>
<path d="M56.2736 34.1825C56.2736 27.943 51.7081 23.3777 41.5122 23.3777C31.3157 23.3777 26.7505 27.9432 26.7505 34.1825C26.7505 40.4221 25.6853 56.8578 41.5122 56.8578C57.3391 56.8578 56.2736 40.4223 56.2736 34.1825Z" fill="#FDCC9B"/>
<path d="M34.3221 43.0093C35.2046 43.0093 35.92 42.2258 35.92 41.2592C35.92 40.2926 35.2046 39.509 34.3221 39.509C33.4395 39.509 32.7241 40.2926 32.7241 41.2592C32.7241 42.2258 33.4395 43.0093 34.3221 43.0093Z" fill="#3B2519"/>
<path d="M33.6256 40.9644C33.8895 40.9644 34.1034 40.7504 34.1034 40.4865C34.1034 40.2226 33.8895 40.0087 33.6256 40.0087C33.3616 40.0087 33.1477 40.2226 33.1477 40.4865C33.1477 40.7504 33.3616 40.9644 33.6256 40.9644Z" fill="white"/>
<path d="M31.7658 37.4858C32.5215 37.775 33.7347 36.5024 36.5123 37.6096C37.0184 37.8115 37.3207 35.8835 34.3436 35.8835C31.7658 35.8835 31.3092 37.3108 31.7658 37.4858Z" fill="#684B37"/>
<path d="M48.8995 43.0093C49.782 43.0093 50.4975 42.2258 50.4975 41.2592C50.4975 40.2926 49.782 39.509 48.8995 39.509C48.017 39.509 47.3016 40.2926 47.3016 41.2592C47.3016 42.2258 48.017 43.0093 48.8995 43.0093Z" fill="#3B2519"/>
<path d="M48.2029 40.9646C48.467 40.9646 48.681 40.7506 48.681 40.4865C48.681 40.2225 48.467 40.0084 48.2029 40.0084C47.9389 40.0084 47.7248 40.2225 47.7248 40.4865C47.7248 40.7506 47.9389 40.9646 48.2029 40.9646Z" fill="white"/>
<path d="M51.2582 37.4858C50.5026 37.775 49.2896 36.5024 46.5121 37.6096C46.006 37.8115 45.7036 35.8835 48.6808 35.8835C51.2582 35.8835 51.7149 37.3108 51.2582 37.4858Z" fill="#684B37"/>
<path d="M41.5122 47.4151C39.9332 47.4151 38.9821 46.2355 38.9821 46.8063C38.9821 47.3768 39.4387 48.4614 41.5122 48.4614C43.5857 48.4614 44.042 47.3771 44.042 46.8063C44.042 46.2355 43.091 47.4151 41.5122 47.4151Z" fill="#FCBC85"/>
<path d="M41.5122 52.6622C40.966 52.6622 40.637 52.2542 40.637 52.4518C40.637 52.6493 40.7949 53.0244 41.5122 53.0244C42.2295 53.0244 42.3872 52.6493 42.3872 52.4518C42.3872 52.2542 42.0582 52.6622 41.5122 52.6622Z" fill="#FCBC85"/>
<path d="M41.5122 51.2082C39.0092 51.2082 37.5016 50.1888 37.5016 50.4472C37.5016 50.7052 38.2254 51.7218 41.5122 51.7218C44.7989 51.7218 45.5227 50.7052 45.5227 50.4472C45.5227 50.1891 44.0148 51.2082 41.5122 51.2082Z" fill="#F7945E"/>
<path d="M32.2673 49.0206C33.4649 49.0206 34.4357 48.0497 34.4357 46.8521C34.4357 45.6545 33.4649 44.6837 32.2673 44.6837C31.0697 44.6837 30.0988 45.6545 30.0988 46.8521C30.0988 48.0497 31.0697 49.0206 32.2673 49.0206Z" fill="#F9AA8D"/>
<path d="M51.0237 49.0206C52.2213 49.0206 53.1922 48.0497 53.1922 46.8521C53.1922 45.6545 52.2213 44.6837 51.0237 44.6837C49.8261 44.6837 48.8552 45.6545 48.8552 46.8521C48.8552 48.0497 49.8261 49.0206 51.0237 49.0206Z" fill="#F9AA8D"/>
<path d="M41.5122 58.9124V68.5H24.8487C24.8487 64.6194 32.7618 58.9124 41.5122 58.9124Z" fill="#8FD6E7"/>
<path d="M41.5122 58.9124V68.5H58.1755C58.1755 64.6194 50.2627 58.9124 41.5122 58.9124Z" fill="#8FD6E7"/>
<path d="M41.5122 68.0659V58.9124C39.0745 58.9124 36.7101 59.3659 34.5556 60.0886L41.5122 68.0659Z" fill="#F6B1CF"/>
<path d="M41.5122 68.0659V58.9124C43.9496 58.9124 46.314 59.3659 48.4688 60.0886L41.5122 68.0659Z" fill="#F6B1CF"/>
<path d="M41.5121 58.9124C39.7392 58.9124 38.0059 59.1554 36.3608 59.5613C36.5951 60.9853 37.5568 63.9068 41.5121 63.9068C45.4673 63.9068 46.4289 60.9853 46.6632 59.5613C45.0184 59.1552 43.2851 58.9124 41.5121 58.9124Z" fill="#F283B4"/>
<path d="M37.7077 59.2442C37.7077 59.2442 37.7074 62.6713 41.5122 62.6713C45.3166 62.6713 45.3166 59.2442 45.3166 59.2442C45.3166 59.2442 41.3693 57.807 37.7077 59.2442Z" fill="#FDCC9B"/>
<path d="M35.6896 59.6276C35.8035 58.887 31.2582 59.4329 31.2952 61.5227C31.3327 63.6125 36.3173 65.2202 37.687 65.9813C39.0566 66.7421 41.4914 68.4997 41.4914 68.4997C41.4914 68.4997 41.948 66.7343 39.8174 65.3722C37.6872 64.0106 35.5374 60.6169 35.6896 59.6276Z" fill="#3ABDAA"/>
<path d="M47.2791 59.6276C47.1652 58.887 51.7105 59.4329 51.6735 61.5227C51.6359 63.6125 46.6513 65.2202 45.2817 65.9813C43.9121 66.7421 41.4773 68.4997 41.4773 68.4997C41.4773 68.4997 41.0206 66.7343 43.1513 65.3722C45.2815 64.0106 47.4313 60.6169 47.2791 59.6276Z" fill="#3ABDAA"/>
<path d="M41.5121 15C24.3914 15 22.1088 29.9483 22.1088 40.9644C22.1088 51.9806 27.8118 58.3778 32.2672 60.1645C32.2672 60.1645 25.1525 47.556 28.6525 35.8835C31.5163 26.3331 41.5121 29.1531 41.5121 29.1531C41.5121 29.1531 51.5075 26.3329 54.3715 35.8835C57.8715 47.556 50.7568 60.1645 50.7568 60.1645C55.2125 58.3778 60.9155 51.9806 60.9155 40.9644C60.9155 29.9483 58.6328 15 41.5121 15Z" fill="#401900"/>
<path d="M47.3015 31.7906C47.3015 31.7906 40.8756 35.0119 35.2009 34.3652C29.5264 33.7183 27.3468 39.6014 27.6932 43.4949L25.7994 34.8294L29.2236 27.9735L38.982 22.9516L48.2029 23.3777L52.5758 27.1746L56.2889 31.7906L58.8989 34.8294L57.6432 44.1809L54.9852 47.3776C54.9855 47.3776 57.3903 35.3794 47.3015 31.7906Z" fill="#401900"/>
</svg>
