<svg width="84" height="84" viewBox="0 0 84 84" fill="none" xmlns="http://www.w3.org/2000/svg">
<circle cx="41.871" cy="41.871" r="40.871" fill="white" stroke="#464646" stroke-width="2"/>
<path d="M45.4308 54.8251H37.4337V63.782H45.4308V54.8251Z" fill="#FDCC9B"/>
<path d="M37.4337 55.8802C37.4337 55.8802 40.7977 58.0223 45.4308 57.5264V54.8251H37.4337V55.8802Z" fill="#FCBC85"/>
<path d="M25.9024 45.3886C28.0574 45.3886 29.8045 43.3954 29.8045 40.9367C29.8045 38.478 28.0574 36.4848 25.9024 36.4848C23.7473 36.4848 22.0003 38.478 22.0003 40.9367C22.0003 43.3954 23.7473 45.3886 25.9024 45.3886Z" fill="#FCBC85"/>
<path d="M56.9622 45.3886C59.1172 45.3886 60.8642 43.3954 60.8642 40.9367C60.8642 38.478 59.1172 36.4848 56.9622 36.4848C54.8071 36.4848 53.0601 38.478 53.0601 40.9367C53.0601 43.3954 54.8071 45.3886 56.9622 45.3886Z" fill="#FCBC85"/>
<path d="M56.9466 32.4334C56.9466 25.8757 52.1484 21.0778 41.4324 21.0778C30.7164 21.0778 25.9182 25.876 25.9182 32.4334C25.9182 38.991 24.7987 56.2646 41.4324 56.2646C58.0661 56.2646 56.9466 38.9913 56.9466 32.4334Z" fill="#FDCC9B"/>
<path d="M33.8758 41.7102C34.8033 41.7102 35.5552 40.8867 35.5552 39.8708C35.5552 38.8549 34.8033 38.0314 33.8758 38.0314C32.9483 38.0314 32.1964 38.8549 32.1964 39.8708C32.1964 40.8867 32.9483 41.7102 33.8758 41.7102Z" fill="#3B2519"/>
<path d="M33.1437 39.5609C33.421 39.5609 33.6459 39.3361 33.6459 39.0587C33.6459 38.7814 33.421 38.5565 33.1437 38.5565C32.8663 38.5565 32.6414 38.7814 32.6414 39.0587C32.6414 39.3361 32.8663 39.5609 33.1437 39.5609Z" fill="white"/>
<path d="M31.1893 35.3122C31.9834 35.7094 33.2585 33.9628 36.1774 35.4822C36.7095 35.7592 37.027 33.1132 33.8984 33.1132C31.1893 33.1132 30.7094 35.0725 31.1893 35.3122Z" fill="#86461B"/>
<path d="M49.1963 41.7102C50.1238 41.7102 50.8757 40.8867 50.8757 39.8708C50.8757 38.8549 50.1238 38.0314 49.1963 38.0314C48.2688 38.0314 47.5169 38.8549 47.5169 39.8708C47.5169 40.8867 48.2688 41.7102 49.1963 41.7102Z" fill="#3B2519"/>
<path d="M48.4642 39.5609C48.7416 39.5609 48.9664 39.3361 48.9664 39.0587C48.9664 38.7814 48.7416 38.5565 48.4642 38.5565C48.1869 38.5565 47.962 38.7814 47.962 39.0587C47.962 39.3361 48.1869 39.5609 48.4642 39.5609Z" fill="white"/>
<path d="M51.6756 35.3122C50.8814 35.7094 49.6063 33.9628 46.6874 35.4822C46.1553 35.7592 45.8378 33.1132 48.9667 33.1132C51.6756 33.1132 52.1552 35.0725 51.6756 35.3122Z" fill="#86461B"/>
<path d="M41.4324 46.3403C39.7728 46.3403 38.7733 45.1005 38.7733 45.7004C38.7733 46.3 39.2532 47.4397 41.4324 47.4397C43.6115 47.4397 44.0915 46.3 44.0915 45.7004C44.0915 45.1008 43.0917 46.3403 41.4324 46.3403Z" fill="#FCBC85"/>
<path d="M41.4324 51.8551C40.8584 51.8551 40.5126 51.4264 40.5126 51.634C40.5126 51.8415 40.6785 52.2357 41.4324 52.2357C42.1863 52.2357 42.3519 51.8415 42.3519 51.634C42.3519 51.4264 42.0062 51.8551 41.4324 51.8551Z" fill="#FCBC85"/>
<path d="M41.4324 50.327C38.8022 50.327 37.2174 49.2559 37.2174 49.5274C37.2174 49.7986 37.9781 50.867 41.4324 50.867C44.8867 50.867 45.6474 49.7986 45.6474 49.5274C45.6471 49.2556 44.0626 50.327 41.4324 50.327Z" fill="#F7945E"/>
<path d="M41.4324 58.4236V68.5H22C22 64.4216 32.2355 58.4236 41.4324 58.4236Z" fill="#D58E64"/>
<path d="M41.4324 58.4236V68.5H60.8645C60.8645 64.4216 50.6287 58.4236 41.4324 58.4236Z" fill="#D58E64"/>
<path d="M41.4324 58.4236C39.4763 58.4236 37.4734 58.697 35.5318 59.1638C35.5448 59.181 37.6856 61.9423 41.4324 61.9423C44.9022 61.9423 47.2089 59.5776 47.5433 59.2136C45.5361 58.7155 43.4589 58.4236 41.4324 58.4236Z" fill="#BF805A"/>
<path d="M37.4337 58.7724C37.4337 58.7724 38.6033 60.223 41.4321 60.223C44.2609 60.223 45.4308 58.7724 45.4308 58.7724C45.4308 58.7724 41.2822 57.2622 37.4337 58.7724Z" fill="#FDCC9B"/>
<path d="M41.4321 52.8456V56.5644C33.0754 56.5644 30.3167 52.1086 29.4995 50.8667C28.8936 49.9452 33.4312 54.1052 37.4337 54.1052C39.1931 54.1052 39.1131 52.8456 41.4321 52.8456Z" fill="#86461B"/>
<path d="M41.4321 52.8456V56.5644C49.7891 56.5644 52.5477 52.1086 53.3647 50.8667C53.9706 49.9452 49.433 54.1052 45.4305 54.1052C43.6714 54.1052 43.7514 52.8456 41.4321 52.8456Z" fill="#86461B"/>
<path d="M41.5374 28.115V15C27.8372 15 25.2783 20.1182 24.6384 29.7144C23.9985 39.3109 25.4431 42.6145 26.4002 42.6022C27.3573 42.5897 26.8429 31.6003 28.1572 29.2345C30.5564 24.9162 34.8451 28.115 41.5374 28.115Z" fill="#86461B"/>
<path d="M41.5374 28.115V15C55.2376 15 57.7965 20.1182 58.4364 29.7144C59.0763 39.3109 57.6316 42.6145 56.6746 42.6022C55.7175 42.5897 56.2319 31.6003 54.9176 29.2345C52.5186 24.9162 48.2297 28.115 41.5374 28.115Z" fill="#86461B"/>
<path d="M32.9138 59.9188C26.8725 61.9598 22.0003 65.6861 22.0003 68.5H32.9143V59.9188H32.9138Z" fill="#744A25"/>
<path d="M33.4952 68.5V59.3032C33.4952 59.3032 31.9358 59.903 31.396 60.1827L29.8045 68.4997H33.4952V68.5Z" fill="#573514"/>
<path d="M49.951 59.9188C55.9923 61.9598 60.8645 65.6861 60.8645 68.5H49.9505V59.9188H49.951Z" fill="#744A25"/>
<path d="M49.3693 68.5V59.3032C49.3693 59.3032 50.9287 59.903 51.4685 60.1827L53.06 68.4997H49.3693V68.5Z" fill="#573514"/>
</svg>
